<svg width="158" height="158" viewBox="0 0 158 158" fill="none" xmlns="http://www.w3.org/2000/svg">
<g filter="url(#filter0_d_14_3)">
<path opacity="0.1" d="M79 150C120.421 150 154 116.421 154 75C154 33.5786 120.421 0 79 0C37.5786 0 4 33.5786 4 75C4 116.421 37.5786 150 79 150Z" fill="#00B2FF"/>
<path d="M13 29.7229V62.7836V65.145C13 67.7534 15.1145 69.868 17.7229 69.868H48.4221L61.0363 81.5118C61.883 82.2934 63.2331 81.5235 62.9917 80.3968L60.2295 67.5065H68.4946C71.103 67.5065 73.2175 65.392 73.2175 62.7836V29.7229C73.2175 27.1145 71.103 25 68.4946 25H17.7229C15.1145 25 13 27.1145 13 29.7229Z" fill="#5ACCFD"/>
<path d="M153.218 57.7229V90.7836V93.145C153.218 95.7534 151.103 97.868 148.495 97.868H117.795L105.181 109.512C104.335 110.293 102.984 109.524 103.226 108.397L105.988 95.5065H97.7229C95.1145 95.5065 93 93.392 93 90.7836V57.7229C93 55.1145 95.1145 53 97.7229 53H148.495C151.103 53 153.218 55.1145 153.218 57.7229Z" fill="#4FD843"/>
<path d="M46 101.41V118.281V119.486C46 120.817 47.0886 121.896 48.4314 121.896H64.2353L70.7291 127.838C71.1649 128.237 71.86 127.844 71.7357 127.269L70.3137 120.691H74.5686C75.9114 120.691 77 119.612 77 118.281V101.41C77 100.079 75.9114 99 74.5686 99H48.4314C47.0886 99 46 100.079 46 101.41Z" fill="#40DF50"/>
<path d="M29.5 50C31.433 50 33 48.433 33 46.5C33 44.567 31.433 43 29.5 43C27.567 43 26 44.567 26 46.5C26 48.433 27.567 50 29.5 50Z" fill="#FEFEFE"/>
<path d="M42.5 50C44.433 50 46 48.433 46 46.5C46 44.567 44.433 43 42.5 43C40.567 43 39 44.567 39 46.5C39 48.433 40.567 50 42.5 50Z" fill="#FEFEFE"/>
<path d="M55.5 50C57.433 50 59 48.433 59 46.5C59 44.567 57.433 43 55.5 43C53.567 43 52 44.567 52 46.5C52 48.433 53.567 50 55.5 50Z" fill="#FEFEFE"/>
</g>
<defs>
<filter id="filter0_d_14_3" x="0" y="0" width="158" height="158" filterUnits="userSpaceOnUse" color-interpolation-filters="sRGB">
<feFlood flood-opacity="0" result="BackgroundImageFix"/>
<feColorMatrix in="SourceAlpha" type="matrix" values="0 0 0 0 0 0 0 0 0 0 0 0 0 0 0 0 0 0 127 0" result="hardAlpha"/>
<feOffset dy="4"/>
<feGaussianBlur stdDeviation="2"/>
<feComposite in2="hardAlpha" operator="out"/>
<feColorMatrix type="matrix" values="0 0 0 0 0 0 0 0 0 0 0 0 0 0 0 0 0 0 0.25 0"/>
<feBlend mode="normal" in2="BackgroundImageFix" result="effect1_dropShadow_14_3"/>
<feBlend mode="normal" in="SourceGraphic" in2="effect1_dropShadow_14_3" result="shape"/>
</filter>
</defs>
</svg>
