<svg width="212" height="48" viewBox="0 0 212 48" fill="none" xmlns="http://www.w3.org/2000/svg">
<path fill-rule="evenodd" clip-rule="evenodd" d="M21.1794 2.09955C22.4135 0.900084 24.3865 0.900084 25.6206 2.09955L39.075 15.1748L43.5536 19.5272C47.8821 23.7338 47.8821 30.554 43.5536 34.7605C39.225 38.9671 32.2071 38.9671 27.8786 34.7605L27.0804 33.9848C28.1599 33.0516 28.8723 31.7102 28.9736 30.2025L34.935 31.3059C36.4776 31.5916 37.4579 29.7181 36.3362 28.628L28.9861 21.4849V16.2198C28.9861 13.1793 26.5049 10.7146 23.4441 10.7146C20.3834 10.7146 17.9022 13.1794 17.9022 16.2198V21.4849L10.552 28.628C9.43027 29.7181 10.4106 31.5916 11.9532 31.3059L17.9146 30.2025C18.0145 31.6884 18.708 33.0129 19.7613 33.9442L18.9214 34.7605C14.5929 38.9671 7.57492 38.9671 3.24633 34.7605C-1.08213 30.554 -1.08213 23.7338 3.24633 19.5271L21.1794 2.09955ZM23.444 20.7168C21.9136 20.7168 20.673 19.5111 20.673 18.0239C20.673 16.5367 21.9136 15.331 23.444 15.331C24.9743 15.331 26.2149 16.5367 26.2149 18.0239C26.2149 19.5111 24.9743 20.7168 23.444 20.7168ZM32.6737 43.7506C33.3785 43.9555 33.91 44.569 33.91 45.2983C33.91 46.1277 33.2333 46.8 32.3984 46.8H14.8122C13.9695 46.8 13.2863 46.1213 13.2863 45.2842C13.2863 44.5523 13.8166 43.9356 14.522 43.7244C16.1845 43.2265 17.7497 42.3437 19.0663 41.0761L22.4485 37.8199C23.0642 37.2271 24.0426 37.2271 24.6585 37.8199L28.0406 41.0761C29.3806 42.3663 30.9781 43.2577 32.6737 43.7506Z" fill="url(#paint0_linear_4_3060)"/>
<path d="M68.4 7.97017C68.4 8.933 68.1666 9.83551 67.6997 10.6779C67.2502 11.5203 66.5328 12.1993 65.5472 12.7151C64.5792 13.231 63.3517 13.4887 61.8648 13.4887H58.8306V20.4H55.2V2.40002H61.8648C63.2652 2.40002 64.458 2.64073 65.4436 3.12196C66.4291 3.60338 67.1637 4.26537 67.6479 5.10776C68.1493 5.95014 68.4 6.90428 68.4 7.97017ZM61.7093 10.5747C62.712 10.5747 63.4554 10.3512 63.9395 9.90434C64.4236 9.44013 64.6656 8.79534 64.6656 7.97017C64.6656 6.21657 63.6802 5.33977 61.7093 5.33977H58.8306V10.5747H61.7093Z" fill="#4B4D63"/>
<path d="M74.4 1.19995V20.4H70.8V1.19995H74.4Z" fill="#4B4D63"/>
<path d="M75.6 13.1496C75.6 11.7399 75.8974 10.4895 76.4922 9.3987C77.105 8.30777 77.9251 7.46861 78.9526 6.88106C79.9979 6.29369 81.1605 6 82.4403 6C83.5577 6 84.5309 6.20988 85.3602 6.62946C86.2072 7.04903 86.8831 7.5777 87.3879 8.21547V6.22668H91.2V20.1735H87.3879V18.1343C86.9012 18.7889 86.2253 19.3344 85.3602 19.7707C84.5131 20.1903 83.5307 20.4 82.4132 20.4C81.1515 20.4 79.9979 20.0978 78.9526 19.4937C77.9251 18.8895 77.105 18.042 76.4922 16.9511C75.8974 15.8434 75.6 14.5763 75.6 13.1496ZM87.3879 13.2C87.3879 12.344 87.2075 11.614 86.8471 11.0098C86.4866 10.3889 86 9.91888 85.3872 9.60009C84.7743 9.26432 84.1163 9.09653 83.4135 9.09653C82.7106 9.09653 82.0616 9.25601 81.4668 9.5748C80.872 9.89378 80.3855 10.3636 80.0069 10.9847C79.6465 11.5889 79.4663 12.3105 79.4663 13.1496C79.4663 13.9888 79.6465 14.7273 80.0069 15.3651C80.3855 15.986 80.872 16.4643 81.4668 16.8001C82.0797 17.1357 82.7285 17.3035 83.4135 17.3035C84.1163 17.3035 84.7743 17.144 85.3872 16.8252C86 16.4896 86.4866 16.0196 86.8471 15.4155C87.2075 14.7945 87.3879 14.0559 87.3879 13.2Z" fill="#4B4D63"/>
<path d="M101.973 6C103.773 6 105.227 6.53807 106.336 7.61422C107.445 8.67345 108 10.1595 108 12.0727V20.4H104.182V12.5594C104.182 11.432 103.882 10.5695 103.282 9.97166C102.682 9.35656 101.864 9.0492 100.827 9.0492C99.7726 9.0492 98.9364 9.35656 98.3182 9.97166C97.7182 10.5695 97.4182 11.432 97.4182 12.5594V20.4H93.6V6.20516H97.4182V7.97306C97.9272 7.35815 98.5726 6.87981 99.3546 6.53807C100.155 6.17942 101.027 6 101.973 6Z" fill="#4B4D63"/>
<path d="M118.773 6C120.573 6 122.027 6.53807 123.136 7.61422C124.245 8.67345 124.8 10.1595 124.8 12.0727V20.4H120.982V12.5594C120.982 11.432 120.682 10.5695 120.082 9.97166C119.482 9.35656 118.664 9.0492 117.627 9.0492C116.573 9.0492 115.736 9.35656 115.118 9.97166C114.518 10.5695 114.218 11.432 114.218 12.5594V20.4H110.4V6.20516H114.218V7.97306C114.727 7.35815 115.373 6.87981 116.155 6.53807C116.955 6.17942 117.827 6 118.773 6Z" fill="#4B4D63"/>
<path d="M129.6 4.26724C128.912 4.26724 128.335 4.06787 127.87 3.66892C127.423 3.25242 127.2 2.74072 127.2 2.13362C127.2 1.52652 127.423 1.0234 127.87 0.624459C128.335 0.208152 128.912 0 129.6 0C130.288 0 130.856 0.208152 131.302 0.624459C131.767 1.0234 132 1.52652 132 2.13362C132 2.74072 131.767 3.25242 131.302 3.66892C130.856 4.06787 130.288 4.26724 129.6 4.26724ZM131.526 5.98475V20.4H127.619V5.98475H131.526Z" fill="#4B4D63"/>
<path d="M142.773 6C144.573 6 146.027 6.53807 147.136 7.61422C148.245 8.67345 148.8 10.1595 148.8 12.0727V20.4H144.982V12.5594C144.982 11.432 144.682 10.5695 144.082 9.97166C143.482 9.35656 142.664 9.0492 141.627 9.0492C140.573 9.0492 139.736 9.35656 139.118 9.97166C138.518 10.5695 138.218 11.432 138.218 12.5594V20.4H134.4V6.20516H138.218V7.97306C138.727 7.35815 139.373 6.87981 140.154 6.53807C140.954 6.17942 141.827 6 142.773 6Z" fill="#4B4D63"/>
<path d="M156.841 6C157.957 6 158.941 6.2154 159.788 6.64602C160.634 7.0594 161.302 7.60198 161.788 8.27376V6.23264H165.6V20.6497C165.6 21.976 165.32 23.1559 164.762 24.1894C164.202 25.2402 163.365 26.067 162.247 26.6698C161.129 27.2899 159.778 27.6 158.192 27.6C156.066 27.6 154.317 27.1262 152.947 26.1789C151.595 25.2315 150.829 23.9397 150.649 22.3034H154.407C154.605 22.9579 155.029 23.4746 155.678 23.8535C156.346 24.2498 157.146 24.4478 158.083 24.4478C159.183 24.4478 160.076 24.1291 160.76 23.4918C161.446 22.8717 161.788 21.9243 161.788 20.6497V18.4276C161.302 19.0994 160.626 19.6593 159.761 20.1071C158.913 20.555 157.939 20.7789 156.841 20.7789C155.579 20.7789 154.425 20.4688 153.379 19.8487C152.334 19.2286 151.505 18.3589 150.892 17.2392C150.297 16.1024 150 14.802 150 13.3377C150 11.8909 150.297 10.6076 150.892 9.48813C151.505 8.36849 152.325 7.50726 153.352 6.90424C154.398 6.30141 155.56 6 156.841 6ZM161.788 13.3894C161.788 12.511 161.607 11.7617 161.248 11.1416C160.886 10.5043 160.4 10.022 159.788 9.69482C159.174 9.35021 158.517 9.178 157.813 9.178C157.111 9.178 156.462 9.34169 155.867 9.66886C155.272 9.99623 154.785 10.4784 154.407 11.1159C154.046 11.7359 153.866 12.4765 153.866 13.3377C153.866 14.199 154.046 14.9569 154.407 15.6115C154.785 16.2488 155.272 16.7397 155.867 17.0843C156.48 17.4287 157.129 17.6009 157.813 17.6009C158.517 17.6009 159.174 17.4372 159.788 17.11C160.4 16.7656 160.886 16.2833 161.248 15.6632C161.607 15.0259 161.788 14.2679 161.788 13.3894Z" fill="#4B4D63"/>
<path d="M69.6 34.7417C69.6 35.7686 69.367 36.7312 68.899 37.63C68.4497 38.5285 67.7319 39.2528 66.7475 39.803C65.7799 40.353 64.5512 40.6282 63.0653 40.6282H60.03V48.0001H56.4V28.8H63.0653C64.4654 28.8 65.6587 29.0568 66.6431 29.5703C67.6293 30.0838 68.3639 30.7898 68.8468 31.6883C69.3483 32.5868 69.6 33.6046 69.6 34.7417ZM62.9087 37.5199C63.9117 37.5199 64.6556 37.2815 65.1385 36.8047C65.6232 36.3095 65.8656 35.6219 65.8656 34.7417C65.8656 32.8712 64.8793 31.936 62.9087 31.936H60.03V37.5199H62.9087Z" fill="#4B4D63"/>
<path d="M78.4898 48C77.0317 48 75.7173 47.6819 74.5485 47.0454C73.3816 46.3908 72.4607 45.4727 71.7858 44.2909C71.1286 43.109 70.8 41.7454 70.8 40.2C70.8 38.6544 71.1365 37.2908 71.8134 36.1089C72.506 34.9273 73.4446 34.0182 74.6311 33.3817C75.8176 32.7272 77.1399 32.4 78.6 32.4C80.06 32.4 81.3823 32.7272 82.5688 33.3817C83.7554 34.0182 84.6861 34.9273 85.361 36.1089C86.0537 37.2908 86.4 38.6544 86.4 40.2C86.4 41.7454 86.0438 43.109 85.3335 44.2909C84.6389 45.4727 83.6904 46.3908 82.4862 47.0454C81.2997 47.6819 79.9695 48 78.4898 48ZM78.4898 44.6727C79.1844 44.6727 79.8318 44.5091 80.4339 44.1817C81.0537 43.8364 81.5476 43.3272 81.9116 42.6545C82.2776 41.9818 82.4587 41.1635 82.4587 40.2C82.4587 38.7636 82.0769 37.6635 81.3095 36.9C80.5618 36.1181 79.6409 35.7272 78.5449 35.7272C77.4508 35.7272 76.53 36.1181 75.7803 36.9C75.0502 37.6635 74.6862 38.7636 74.6862 40.2C74.6862 41.6362 75.0424 42.7455 75.7527 43.5272C76.4827 44.2909 77.3957 44.6727 78.4898 44.6727Z" fill="#4B4D63"/>
<path d="M96.8603 48L91.5522 41.494V48H87.6V27.6H91.5522V39.206L96.8035 32.7276H101.943L95.0537 40.3914L102 48H96.8603Z" fill="#4B4D63"/>
<path d="M116.4 39.8727C116.4 40.4182 116.366 40.9091 116.297 41.3455H105.713C105.799 42.4363 106.166 43.2908 106.81 43.909C107.454 44.5273 108.247 44.8362 109.187 44.8362C110.547 44.8362 111.513 44.2273 112.088 43.0091H116.035C115.616 44.4637 114.816 45.6635 113.63 46.609C112.445 47.5363 110.991 48 109.266 48C107.872 48 106.618 47.6819 105.502 47.0454C104.405 46.3908 103.543 45.4727 102.915 44.2909C102.306 43.109 102 41.7454 102 40.2C102 38.6362 102.306 37.2636 102.915 36.0818C103.526 34.8999 104.379 33.9908 105.476 33.3545C106.575 32.7182 107.838 32.4 109.266 32.4C110.643 32.4 111.87 32.709 112.95 33.3273C114.049 33.9454 114.893 34.8273 115.487 35.9728C116.096 37.1 116.4 38.3999 116.4 39.8727ZM112.612 38.7818C112.593 37.7999 112.253 37.0182 111.592 36.4363C110.93 35.8364 110.121 35.5362 109.162 35.5362C108.255 35.5362 107.488 35.8272 106.863 36.4091C106.252 36.9726 105.878 37.7635 105.737 38.7818H112.612Z" fill="#4B4D63"/>
<path d="M122.593 35.0093C123.082 34.195 123.713 33.5567 124.49 33.0941C125.285 32.6314 126.189 32.4 127.2 32.4V36.4805H126.197C125.005 36.4805 124.103 36.7672 123.487 37.341C122.891 37.9145 122.593 38.9139 122.593 40.3388V48H118.8V32.6221H122.593V35.0093Z" fill="#4B4D63"/>
<path d="M139.213 48C137.46 48 135.847 47.5883 134.38 46.7649C132.911 45.9413 131.749 44.8046 130.89 43.3544C130.031 41.8865 129.6 40.2306 129.6 38.3867C129.6 36.5606 130.031 34.9226 130.89 33.4725C131.749 32.0046 132.911 30.8588 134.38 30.0352C135.847 29.2118 137.46 28.8 139.213 28.8C140.985 28.8 142.597 29.2118 144.047 30.0352C145.516 30.8588 146.671 32.0046 147.51 33.4725C148.371 34.9226 148.8 36.5606 148.8 38.3867C148.8 40.2306 148.371 41.8865 147.51 43.3544C146.671 44.8046 145.516 45.9413 144.047 46.7649C142.58 47.5883 140.967 48 139.213 48ZM139.213 44.6435C140.342 44.6435 141.334 44.3929 142.193 43.8916C143.053 43.3723 143.724 42.6385 144.209 41.6896C144.692 40.7408 144.933 39.6397 144.933 38.3867C144.933 37.1334 144.692 36.0414 144.209 35.1105C143.724 34.1618 143.053 33.4366 142.193 32.9355C141.334 32.4342 140.342 32.1836 139.213 32.1836C138.085 32.1836 137.083 32.4342 136.207 32.9355C135.347 33.4366 134.676 34.1618 134.191 35.1105C133.708 36.0414 133.467 37.1334 133.467 38.3867C133.467 39.6397 133.708 40.7408 134.191 41.6896C134.676 42.6385 135.347 43.3723 136.207 43.8916C137.083 44.3929 138.085 44.6435 139.213 44.6435Z" fill="#4B4D63"/>
<path d="M159.573 32.4C161.373 32.4 162.827 32.9829 163.937 34.1488C165.045 35.2963 165.6 36.9062 165.6 38.9787V48H161.782V39.5061C161.782 38.2847 161.482 37.3503 160.882 36.7027C160.282 36.0363 159.465 35.7033 158.427 35.7033C157.373 35.7033 156.537 36.0363 155.918 36.7027C155.318 37.3503 155.018 38.2847 155.018 39.5061V48H151.2V32.6223H155.018V34.5375C155.527 33.8713 156.173 33.3532 156.955 32.9829C157.755 32.5944 158.627 32.4 159.573 32.4Z" fill="#4B4D63"/>
<path d="M171.6 27.6V48H168V27.6H171.6Z" fill="#4B4D63"/>
<path d="M176.401 30.9183C175.711 30.9183 175.135 30.7072 174.67 30.2848C174.225 29.8438 174 29.302 174 28.6592C174 28.0163 174.225 27.4836 174.67 27.0612C175.135 26.6204 175.711 26.4 176.401 26.4C177.089 26.4 177.655 26.6204 178.102 27.0612C178.567 27.4836 178.8 28.0163 178.8 28.6592C178.8 29.302 178.567 29.8438 178.102 30.2848C177.655 30.7072 177.089 30.9183 176.401 30.9183ZM178.325 32.7368V48H174.419V32.7368H178.325Z" fill="#4B4D63"/>
<path d="M189.573 32.4C191.373 32.4 192.827 32.9829 193.935 34.1488C195.045 35.2963 195.6 36.9062 195.6 38.9787V48H191.78V39.5061C191.78 38.2847 191.48 37.3503 190.88 36.7027C190.28 36.0363 189.463 35.7033 188.427 35.7033C187.373 35.7033 186.535 36.0363 185.918 36.7027C185.318 37.3503 185.018 38.2847 185.018 39.5061V48H181.2V32.6223H185.018V34.5375C185.527 33.8713 186.173 33.3532 186.953 32.9829C187.753 32.5944 188.627 32.4 189.573 32.4Z" fill="#4B4D63"/>
<path d="M211.2 39.8727C211.2 40.4182 211.166 40.9091 211.095 41.3455H200.511C200.599 42.4363 200.964 43.291 201.608 43.9091C202.253 44.5273 203.045 44.8364 203.987 44.8364C205.345 44.8364 206.313 44.2273 206.888 43.0091H210.834C210.416 44.4637 209.614 45.6637 208.43 46.6092C207.245 47.5365 205.791 48 204.066 48C202.672 48 201.416 47.6819 200.302 47.0455C199.205 46.391 198.343 45.4727 197.715 44.2909C197.104 43.109 196.8 41.7454 196.8 40.2C196.8 38.6364 197.104 37.2636 197.715 36.082C198.324 34.9001 199.179 33.991 200.276 33.3545C201.373 32.7182 202.636 32.4 204.066 32.4C205.441 32.4 206.67 32.7092 207.75 33.3273C208.848 33.9454 209.693 34.8273 210.285 35.9728C210.896 37.1 211.2 38.4001 211.2 39.8727ZM207.41 38.7818C207.393 37.8001 207.053 37.0182 206.392 36.4363C205.729 35.8364 204.919 35.5364 203.961 35.5364C203.055 35.5364 202.288 35.8274 201.661 36.4091C201.052 36.9728 200.676 37.7637 200.537 38.7818H207.41Z" fill="#4B4D63"/>
<defs>
<linearGradient id="paint0_linear_4_3060" x1="4.79999" y1="52.7999" x2="42" y2="1.19994" gradientUnits="userSpaceOnUse">
<stop stop-color="#20D953"/>
<stop offset="1" stop-color="#06D2FF"/>
</linearGradient>
</defs>
</svg>
